<svg xmlns="http://www.w3.org/2000/svg" width="410" height="404" viewBox="0 0 410 404" fill="none">
  <defs>
    <linearGradient id="paint0_linear" x1="203.5" y1="0" x2="203.5" y2="404" gradientUnits="userSpaceOnUse">
      <stop stop-color="#41D1FF"/>
      <stop offset="1" stop-color="#BD34FE"/>
    </linearGradient>
    <linearGradient id="paint1_linear" x1="203.5" y1="0" x2="203.5" y2="404" gradientUnits="userSpaceOnUse">
      <stop stop-color="#FFEA83"/>
      <stop offset=".08" stop-color="#FFDD35"/>
      <stop offset="1" stop-color="#FFA800"/>
    </linearGradient>
  </defs>
  <path d="M399.641 59.525C407.402 72.543 404.627 88.997 392.222 116.056L240.499 435.048C231.624 454.025 222.181 463.514 212.254 463.514C202.327 463.514 192.885 454.025 184.01 435.048L122.529 301.169L26.325 119.908C14.554 97.088 8.668 83.678 10.461 71.64C12.254 59.602 21.371 49.995 39.606 31.059L62.233 8.432C81.642 -10.977 91.347 -20.681 102.553 -22.723C113.758 -24.764 125.003 -18.142 147.493 -4.897L203.5 29.034L257.748 -3.874C279.733 -17.003 290.725 -23.567 301.504 -21.659C312.282 -19.751 321.824 -9.54 341.607 10.242L369.399 38.034C386.2 54.834 394.333 62.968 399.641 59.525Z" fill="url(#paint0_linear)"/>
  <path d="M125.866 281.004L122.51 301.239L184.007 435.05C192.882 454.027 202.324 463.516 212.251 463.516C222.178 463.516 231.62 454.027 240.495 435.05L392.219 116.059C404.624 88.999 407.399 72.545 399.638 59.527C394.33 62.971 386.197 54.838 369.396 38.037L341.604 10.245C321.821 -9.537 312.279 -19.748 301.501 -21.656C290.723 -23.564 279.731 -17 257.746 -3.871L203.498 29.037L147.491 -4.894C125.001 -18.139 113.756 -24.761 102.55 -22.72C91.345 -20.678 81.64 -10.974 62.231 8.435L39.604 31.062C21.369 49.998 12.252 59.605 10.459 71.642C8.666 83.68 14.552 97.09 26.323 119.91L125.866 281.004Z" fill="url(#paint1_linear)"/>
</svg>

